<?xml version="1.0" standalone="no"?>
<!DOCTYPE svg PUBLIC "-//W3C//DTD SVG 20010904//EN"
 "http://www.w3.org/TR/2001/REC-SVG-20010904/DTD/svg10.dtd">
<svg version="1.0" xmlns="http://www.w3.org/2000/svg"
 width="500.000000pt" height="500.000000pt" viewBox="0 0 500.000000 500.000000"
 preserveAspectRatio="xMidYMid meet">

<g transform="translate(0.000000,500.000000) scale(0.100000,-0.100000)"
fill="#000000" stroke="none">
<path d="M2720 3560 c-147 -14 -279 -58 -387 -130 -54 -37 -144 -121 -175
-164 l-21 -28 86 7 85 7 74 73 c125 122 252 170 448 169 170 -2 290 -45 405
-145 50 -44 111 -138 132 -205 17 -56 33 -71 33 -31 -1 62 -40 291 -52 302
-51 50 -272 129 -390 140 -126 11 -154 12 -238 5z"/>
<path d="M2138 3178 c-46 -10 -47 -11 -77 -81 -45 -110 -63 -213 -63 -362 0
-196 37 -336 127 -476 106 -164 289 -290 478 -329 58 -12 60 -11 88 16 31 30
30 44 -4 44 -38 1 -158 48 -211 83 -224 149 -332 420 -305 766 9 112 29 197
70 289 l28 62 -42 -1 c-23 -1 -63 -6 -89 -11z"/>
<path d="M3443 2525 c-35 -219 -142 -385 -302 -469 -82 -43 -202 -76 -276 -76
-46 0 -55 -4 -86 -36 l-34 -37 115 6 c200 11 334 63 457 180 121 116 128 129
141 309 14 180 15 198 4 198 -4 0 -13 -34 -19 -75z"/>
<path d="M1520 1520 c-25 -25 -26 -72 -2 -93 26 -24 36 -21 12 3 -37 37 -18
90 35 103 18 4 18 5 -2 6 -13 0 -32 -8 -43 -19z"/>
<path d="M2358 1533 c6 -2 18 -2 25 0 6 3 1 5 -13 5 -14 0 -19 -2 -12 -5z"/>
<path d="M3180 1477 c0 -37 3 -67 8 -67 7 0 5 120 -3 129 -3 2 -5 -26 -5 -62z"/>
<path d="M3269 1513 c0 -16 -1 -45 -2 -66 -1 -20 1 -37 6 -37 4 0 7 29 7 65 0
36 -2 65 -5 65 -3 0 -5 -12 -6 -27z"/>
<path d="M2322 1518 c-28 -28 -5 -108 31 -108 6 0 1 7 -11 16 -24 16 -29 53
-12 85 12 22 9 24 -8 7z"/>
<path d="M1640 1465 c0 -30 5 -55 10 -55 6 0 10 23 10 50 0 38 4 50 15 50 19
0 33 -32 17 -38 -18 -6 -15 -27 6 -45 28 -26 38 -20 13 7 -14 15 -19 26 -12
31 16 10 13 42 -5 49 -44 17 -54 8 -54 -49z"/>
<path d="M1750 1516 c0 -3 9 -21 21 -41 12 -19 18 -42 15 -50 -3 -8 -1 -15 4
-15 6 0 10 12 10 26 0 14 9 39 21 55 11 16 16 29 11 29 -5 0 -14 -12 -21 -26
-9 -21 -14 -24 -26 -14 -8 7 -15 19 -15 26 0 8 -4 14 -10 14 -5 0 -10 -2 -10
-4z"/>
<path d="M1888 1513 c7 -3 16 -2 19 1 4 3 -2 6 -13 5 -11 0 -14 -3 -6 -6z"/>
<path d="M1958 1513 c22 -4 24 -9 20 -54 -1 -27 0 -49 5 -49 4 0 7 22 7 49 0
43 3 50 23 54 12 2 0 4 -28 4 -27 0 -39 -2 -27 -4z"/>
<path d="M2175 1465 l0 -55 35 1 c30 2 31 3 8 6 -26 4 -28 8 -28 54 0 27 -3
49 -7 49 -5 0 -8 -25 -8 -55z"/>
<path d="M2588 1513 c7 -3 16 -2 19 1 4 3 -2 6 -13 5 -11 0 -14 -3 -6 -6z"/>
<path d="M2681 1516 c2 -2 20 -6 39 -10 25 -4 31 -3 20 4 -14 9 -69 15 -59 6z"/>
<path d="M2900 1465 l0 -55 39 0 c40 0 71 25 71 57 0 25 -39 53 -75 53 l-35 0
0 -55z m78 36 c8 -5 12 -22 10 -42 -3 -31 -6 -34 -40 -37 l-38 -3 0 45 c0 44
1 46 28 46 15 0 33 -4 40 -9z"/>
<path d="M3035 1465 l0 -55 35 1 c30 2 31 3 8 6 -35 5 -39 40 -5 46 l22 4 -22
2 c-35 2 -31 39 5 44 23 3 22 4 -8 6 l-35 1 0 -55z"/>
<path d="M3336 1507 c-31 -23 -17 -98 18 -97 6 0 3 5 -6 11 -21 12 -24 59 -6
77 17 17 53 15 68 -3 8 -9 10 -27 6 -46 -3 -18 -2 -28 4 -24 16 10 12 62 -6
79 -19 19 -54 21 -78 3z"/>
<path d="M3468 1513 c22 -4 24 -9 20 -54 -1 -27 0 -49 5 -49 4 0 7 22 7 49 0
43 3 50 23 54 12 2 0 4 -28 4 -27 0 -39 -2 -27 -4z"/>
<path d="M3570 1465 l0 -55 33 1 c30 2 30 2 5 6 -35 5 -39 40 -5 46 l22 4 -22
2 c-35 2 -31 39 5 44 25 4 25 4 -5 6 l-33 1 0 -55z"/>
<path d="M3665 1465 l0 -55 35 1 c30 2 31 3 8 6 -26 4 -28 8 -28 54 0 27 -3
49 -7 49 -5 0 -8 -25 -8 -55z"/>
<path d="M2072 1465 c-29 -61 -27 -72 2 -15 l24 45 17 -42 c9 -24 21 -43 26
-43 5 0 -2 23 -16 50 -14 28 -27 50 -28 50 -2 0 -13 -20 -25 -45z"/>
<path d="M2486 1502 c-4 -7 -3 -12 3 -12 6 0 16 -18 22 -40 7 -22 16 -40 21
-40 12 0 9 11 -16 59 -14 27 -26 40 -30 33z"/>
<path d="M2649 1484 c-7 -20 -6 -32 6 -50 8 -13 21 -24 27 -24 7 0 4 6 -6 13
-14 10 -17 23 -14 50 5 44 1 47 -13 11z"/>
<path d="M2792 1460 c-12 -27 -17 -50 -13 -50 4 0 13 18 20 40 6 22 15 40 20
40 4 0 14 -18 21 -40 7 -22 17 -40 21 -40 4 0 -2 23 -14 50 -11 28 -24 50 -28
50 -3 0 -16 -22 -27 -50z"/>
<path d="M1860 1492 c0 -6 12 -19 26 -28 17 -11 24 -24 21 -36 -3 -10 -1 -16
4 -12 16 10 9 30 -21 59 -16 16 -30 24 -30 17z"/>
<path d="M2560 1492 c0 -6 12 -19 26 -28 17 -11 24 -24 21 -36 -3 -10 -1 -16
4 -12 16 10 9 30 -21 59 -16 16 -30 24 -30 17z"/>
<path d="M2457 1445 c-9 -19 -13 -35 -9 -35 8 0 34 61 29 67 -2 1 -11 -13 -20
-32z"/>
<path d="M2399 1423 c-13 -16 -12 -17 4 -4 16 13 21 21 13 21 -2 0 -10 -8 -17
-17z"/>
<path d="M1860 1420 c0 -5 5 -10 11 -10 5 0 7 5 4 10 -3 6 -8 10 -11 10 -2 0
-4 -4 -4 -10z"/>
<path d="M2560 1420 c0 -5 5 -10 11 -10 5 0 7 5 4 10 -3 6 -8 10 -11 10 -2 0
-4 -4 -4 -10z"/>
</g>
</svg>
